<svg xmlns="http://www.w3.org/2000/svg" viewBox="0 0 64 64">
  <defs>
    <linearGradient id="bg" x1="0" y1="0" x2="1" y2="1">
      <stop offset="0%" stop-color="#FF6A00"/>
      <stop offset="50%" stop-color="#FF4500"/>
      <stop offset="100%" stop-color="#D93E00"/>
    </linearGradient>
  </defs>
  <circle cx="32" cy="32" r="32" fill="url(#bg)"/>
  <g transform="translate(32,32)">
    <circle r="19" fill="#FFFFFF"/>
    <g fill="#0A0C10">
      <polygon points="0,-10 9.5,-3 6,8 -6,8 -9.5,-3"/>
      <polygon points="0,-19 5.9,-15.3 3.9,-9.8 -3.9,-9.8 -5.9,-15.3"/>
      <polygon points="16.9,-9.5 19,-2.3 13.3,3 9.5,-3"/>
      <polygon points="17.4,10.3 11,15.6 6,8 13.3,3"/>
      <polygon points="0,19 -6,8 6,8 6,8"/>
      <polygon points="-0.2,19 -6.2,8 -13.3,3 -11,15.6"/>
      <polygon points="-16.9,-9.5 -9.5,-3 -13.3,3 -19,-2.3"/>
      <polygon points="-17.4,10.3 -13.3,3 -6,8 -11,15.6"/>
      <polygon points="-5.9,-15.3 -3.9,-9.8 -9.5,-3 -16.9,-9.5"/>
      <polygon points="5.9,-15.3 16.9,-9.5 9.5,-3 3.9,-9.8"/>
    </g>
  </g>
</svg>
